<svg width="21" height="20" viewBox="0 0 21 20" xmlns="http://www.w3.org/2000/svg">
    <g fill-rule="nonzero" fill="none">
        <path d="M21 18.75c0 .69-.588 1.25-1.313 1.25H1.313C.589 20 0 19.44 0 18.75V1.25C0 .56.588 0 1.313 0h18.375C20.412 0 21 .56 21 1.25v17.5z" fill="#FFF"/>
        <g transform="translate(4.375 3.333)" fill="#2867B2">
            <path d="M0 3.07h2.722v8.596H0zM9.187 3.07c-1.9 0-2.226.625-2.381 1.228V3.07H4.083v8.597h2.723V6.754c0-.796.478-1.228 1.36-1.228.862 0 1.362.423 1.362 1.228v4.913h2.722V7.368c0-2.456-.355-4.298-3.063-4.298z"/>
            <ellipse cx="1.361" cy="1.228" rx="1.361" ry="1.228"/>
        </g>
    </g>
</svg>
