<svg width="16" height="16" viewBox="0 0 16 16" xmlns="http://www.w3.org/2000/svg">
    <g fill-rule="nonzero" fill="none">
        <path d="M16 8.192c0-.54-.053-1.098-.142-1.621h-7.7v3.085h4.41a3.633 3.633 0 0 1-1.636 2.423l2.632 2.004C15.11 12.67 16 10.614 16 8.192z" fill="#4280EF"/>
        <path d="M8.158 16c2.205 0 4.054-.715 5.406-1.935l-2.632-1.986c-.73.488-1.672.766-2.774.766-2.134 0-3.93-1.411-4.588-3.294l-2.703 2.04C2.254 14.291 5.064 16 8.157 16z" fill="#34A353"/>
        <path d="M3.57 9.534a4.768 4.768 0 0 1 0-3.068L.867 4.41a7.868 7.868 0 0 0 0 7.18L3.57 9.534z" fill="#F6B704"/>
        <path d="M8.158 3.172a4.503 4.503 0 0 1 3.13 1.203l2.33-2.3C12.14.714 10.184-.018 8.157 0 5.064 0 2.254 1.708.867 4.41L3.57 6.466c.658-1.9 2.454-3.294 4.588-3.294z" fill="#E54335"/>
    </g>
</svg>
