<svg width="33" height="33" viewBox="0 0 33 33" xmlns="http://www.w3.org/2000/svg">
    <g fill="none" fill-rule="evenodd">
        <circle fill="#E8F5FB" cx="16.5" cy="16.5" r="16.5"/>
        <g fill-rule="nonzero">
            <path d="m26.533 14.679-1.05-.259a8.902 8.902 0 0 0-1.157-2.805l.53-.886a.612.612 0 0 0-.087-.75l-.861-.862-.886-.886a.612.612 0 0 0-.751-.086l-.886.53a8.9 8.9 0 0 0-2.805-1.157l-.259-1.05a.606.606 0 0 0-.59-.468H15.27a.606.606 0 0 0-.59.468l-.26 1.05a8.9 8.9 0 0 0-2.805 1.156l-.886-.529a.612.612 0 0 0-.75.086L8.23 9.98a.612.612 0 0 0-.086.75l.53.886a8.902 8.902 0 0 0-1.157 2.806l-1.05.258a.606.606 0 0 0-.468.59v2.461c0 .283.197.53.468.591l1.05.258a9.199 9.199 0 0 0 1.6 3.446l1.857 1.858a9.199 9.199 0 0 0 3.446 1.6l.258 1.05c.061.27.308.467.59.467h2.461a.606.606 0 0 0 .591-.468l.258-1.05a8.9 8.9 0 0 0 2.806-1.156l.886.529c.246.147.554.11.75-.086l1.748-1.748a.612.612 0 0 0 .086-.75l-.53-.886a8.901 8.901 0 0 0 1.157-2.806l1.05-.258a.606.606 0 0 0 .468-.59V15.27a.606.606 0 0 0-.467-.591zM16.5 22.037a5.385 5.385 0 0 1-3.728-1.464.92.92 0 0 1-.173-.148 5.502 5.502 0 0 1-1.636-3.925 5.53 5.53 0 0 1 5.537-5.537c1.538 0 2.929.627 3.925 1.636.062.062.111.111.148.173a5.384 5.384 0 0 1 1.464 3.728 5.53 5.53 0 0 1-5.537 5.537z" fill="#B7E0F6"/>
            <path d="M27 15.193v2.477a.61.61 0 0 1-.469.594l-1.053.26a8.977 8.977 0 0 1-1.16 2.824l.53.892a.618.618 0 0 1-.086.755l-1.753 1.759a.613.613 0 0 1-.753.087l-.888-.533a8.912 8.912 0 0 1-2.815 1.164l-.259 1.057a.609.609 0 0 1-.592.471h-2.469a.609.609 0 0 1-.592-.47l-.26-1.058a9.212 9.212 0 0 1-3.455-1.61L10 22.933l2.555-2.55c.062.061.111.11.173.148a5.391 5.391 0 0 0 3.74 1.474 5.556 5.556 0 0 0 5.554-5.574 5.43 5.43 0 0 0-1.469-3.753c-.037-.062-.086-.111-.148-.173L23.898 9l.864.867a.618.618 0 0 1 .086.755l-.53.892c.543.867.938 1.82 1.16 2.824l1.053.26a.61.61 0 0 1 .469.595z" fill="#A4D9F5"/>
            <path d="M20.861 15.235a.623.623 0 0 0-1.045-.289l-1.413 1.414a1.237 1.237 0 0 1-.881.364c-.334 0-.647-.129-.882-.364a1.249 1.249 0 0 1 0-1.763l1.423-1.423a.616.616 0 0 0-.283-1.033 4.753 4.753 0 0 0-1.95-.073 4.358 4.358 0 0 0-3.481 3.484c-.14.78-.077 1.556.178 2.27l-5.98 5.982a1.881 1.881 0 0 0 .011 2.663 1.887 1.887 0 0 0 2.64-.011l5.98-5.982c.958.342 2.026.335 3.07-.033 1.412-.499 2.39-1.802 2.683-3.27v-.003a4.718 4.718 0 0 0-.07-1.933z" fill="#17ACE8"/>
            <path d="m9.56 26.467 5.796-5.863c.928.335 1.964.329 2.977-.033 1.368-.488 2.315-1.765 2.6-3.204v-.003a4.673 4.673 0 0 0-.07-1.91.592.592 0 0 0-1-.277l-1.38 1.395a1.193 1.193 0 0 1-1.696.009L7 26.478c.713.683 1.805.712 2.56-.011z" fill="#1689FC"/>
        </g>
    </g>
</svg>
