<svg width="33" height="33" viewBox="0 0 33 33" xmlns="http://www.w3.org/2000/svg">
    <g fill="none" fill-rule="evenodd">
        <circle cx="16.5" cy="16.5" r="16.5" fill="#F5F5F6"/>
        <g fill="#E82127" fill-rule="nonzero">
            <path d="m16.501 26.92 2.658-14.95c2.534 0 3.333.278 3.448 1.412 0 0 1.7-.634 2.557-1.92C21.82 9.91 18.458 9.84 18.458 9.84l-1.961 2.389h.004L14.54 9.84s-3.361.07-6.706 1.62c.856 1.288 2.557 1.922 2.557 1.922.116-1.134.914-1.412 3.43-1.414l2.68 14.952"/>
            <path d="M16.5 9.151c2.704-.02 5.8.418 8.968 1.8.423-.763.532-1.1.532-1.1A26.003 26.003 0 0 0 16.5 8c-2.793.012-6.037.48-9.5 1.851 0 0 .155.415.532 1.1 3.168-1.382 6.264-1.82 8.968-1.8z"/>
        </g>
    </g>
</svg>
