<svg width="33" height="33" viewBox="0 0 33 33" xmlns="http://www.w3.org/2000/svg">
    <g fill="none" fill-rule="evenodd">
        <circle fill="#D8F7C2" cx="16.5" cy="16.5" r="16.5"/>
        <g transform="translate(5 4)" fill-rule="nonzero">
            <path d="m12.296 12.022-1.876-.707-5.805-.562c-.22.15-.429.322-.621.515L.61 14.652c-.393.393-.61.916-.61 1.472v2.772c0 1.148.934 2.083 2.083 2.083H11.5l.674-1.493.122-7.464z" fill="#94E671"/>
            <path d="M23 17.155v1.977a1.849 1.849 0 0 1-1.847 1.847H11.5v-9.257l6.802 2.564.008.002 3.415 1.11A1.842 1.842 0 0 1 23 17.156z" fill="#52CC7B"/>
            <path d="M12.537 12.055 11.5 14.288H7.147a2.531 2.531 0 0 1-2.532-2.531v-1.004a4.232 4.232 0 0 1 2.38-.729h4.505l1.037 2.03z" fill="#404A80"/>
            <path d="M14.027 16.898h-1.199a.674.674 0 0 1 0-1.348h1.2a.674.674 0 0 1 0 1.348z" fill="#3D997A"/>
            <g fill="#8095FF">
                <path d="M11.5 6.58a.674.674 0 0 0 0 1.348l.337-.735-.337-.613zM11.91 3.743l-.41-.453c-1.06 0-2.055.412-2.803 1.161a.673.673 0 1 0 .953.953 2.6 2.6 0 0 1 1.85-.766l.41-.502v-.393zM11.91.459 11.5 0C9.562 0 7.74.755 6.37 2.125a.674.674 0 0 0 .954.953 5.866 5.866 0 0 1 4.176-1.73l.41-.418V.46z"/>
            </g>
            <circle fill="#E8F1FD" cx="4.773" cy="20.305" r="1.653"/>
            <circle fill="#CFDBFD" cx="18.227" cy="20.305" r="1.653"/>
            <path d="M4.773 23a2.698 2.698 0 0 1-2.695-2.695 2.698 2.698 0 0 1 2.695-2.696 2.698 2.698 0 0 1 2.695 2.696A2.698 2.698 0 0 1 4.773 23zm0-4.043a1.35 1.35 0 0 0-1.348 1.348 1.35 1.35 0 0 0 1.348 1.347 1.35 1.35 0 0 0 1.348-1.347 1.35 1.35 0 0 0-1.348-1.348z" fill="#404A80"/>
            <path d="M18.227 23a2.698 2.698 0 0 1-2.695-2.695 2.698 2.698 0 0 1 2.695-2.696 2.698 2.698 0 0 1 2.695 2.696A2.698 2.698 0 0 1 18.227 23zm0-4.043a1.35 1.35 0 0 0-1.348 1.348 1.35 1.35 0 0 0 1.348 1.347 1.35 1.35 0 0 0 1.348-1.347 1.35 1.35 0 0 0-1.348-1.348zM18.31 14.288H11.5v-4.264h1.335c.778 0 1.509.303 2.058.853l3.41 3.409.007.002z" fill="#283366"/>
            <g fill="#66F">
                <path d="M12.174 7.254a.674.674 0 0 1-.674.674V6.58c.372 0 .674.302.674.674zM14.303 4.45a.674.674 0 0 1-.953.954 2.6 2.6 0 0 0-1.85-.766V3.29c1.06 0 2.055.412 2.803 1.16zM16.63 3.078a.674.674 0 0 1-.954 0 5.866 5.866 0 0 0-4.176-1.73V0c1.938 0 3.76.755 5.13 2.125a.674.674 0 0 1 0 .953z"/>
            </g>
        </g>
    </g>
</svg>
