<svg width="33" height="33" viewBox="0 0 33 33" xmlns="http://www.w3.org/2000/svg">
    <g fill="none" fill-rule="evenodd">
        <circle fill="#D8F7C2" cx="16.5" cy="16.5" r="16.5"/>
        <g fill-rule="nonzero">
            <path d="M15.982 25.503c-2.257 0-4.734-.67-7.146-1.987a.652.652 0 0 1-.286-.313c-2.061-4.756-2.067-8.572-.017-11.342 4.534-6.126 17.34-4.749 17.887-4.686a.652.652 0 0 1 .371 1.127c.003 0-1.212 1.522-2.069 8.976-.394 3.434-1.938 5.941-4.465 7.252-1.256.651-2.712.973-4.275.973z" fill="#91DC5A"/>
            <g fill="#6DC82A">
                <path d="M26.791 8.302a.653.653 0 0 0 .176-.682c-.006-.02-.02-.037-.028-.056-3.533 1.499-13.724 6.962-18.047 15.98 2.394 1.297 4.85 1.959 7.09 1.959 1.562 0 3.02-.321 4.275-.973 2.527-1.31 4.07-3.818 4.465-7.252.857-7.454 2.072-8.976 2.069-8.976z"/>
                <path d="M7.784 26.993a.652.652 0 0 1-.624-.846C10.683 14.755 23.522 8.39 26.077 7.23a.653.653 0 0 1 .54 1.19c-2.466 1.119-14.851 7.255-18.21 18.114a.653.653 0 0 1-.623.46z"/>
                <path d="M18.555 19.527a.654.654 0 0 0-.732-.564c-.85.11-1.765.106-2.72-.011a13.547 13.547 0 0 1-2.038-.418 9.556 9.556 0 0 1-.747-.244 8.227 8.227 0 0 1-.087-2.327c.079-.753.255-1.52.525-2.279a.653.653 0 0 0-1.23-.437 11.203 11.203 0 0 0-.593 2.58 9.453 9.453 0 0 0 .187 3.146c.07.301.338.504.635.504l.02-.002.03.015c.014.006.347.14.9.299.502.145 1.299.341 2.239.458a13.08 13.08 0 0 0 1.605.1c.494 0 .976-.03 1.442-.09a.653.653 0 0 0 .564-.73zM20.229 14.81c-.46 0-.919-.039-1.37-.116a7.57 7.57 0 0 1-1.446-.39 4.614 4.614 0 0 1-.565-.255.659.659 0 0 1-.327-.477s-.027-.178-.04-.482c-.015-.38-.003-.77.037-1.158a7.528 7.528 0 0 1 .327-1.569.653.653 0 0 1 1.24.406c-.132.404-.222.84-.269 1.295a6.87 6.87 0 0 0-.03.971v.012l.095.038c.255.097.67.233 1.197.323.595.1 1.204.122 1.813.065a.653.653 0 0 1 .123 1.3 8.232 8.232 0 0 1-.785.036z"/>
            </g>
            <g fill="#91DC5A">
                <path d="M16.848 14.05c.022.012.22.121.565.253.452.174.939.305 1.446.391a8.149 8.149 0 0 0 2.155.078.653.653 0 1 0-.123-1.3 6.976 6.976 0 0 1-1.813-.064 6.386 6.386 0 0 1-1.197-.323l-.054-.021c-.37.286-.739.582-1.108.889.04.037.082.07.129.096zM17.823 18.963c-.85.11-1.765.106-2.72-.011a13.547 13.547 0 0 1-2.038-.418 9.496 9.496 0 0 1-.74-.241 28.5 28.5 0 0 0-.875 1.098.64.64 0 0 0 .305.086l.02-.002.03.015c.014.006.347.14.9.299.502.144 1.299.341 2.239.458a13.08 13.08 0 0 0 1.605.1c.494 0 .976-.03 1.442-.09a.653.653 0 1 0-.168-1.294z"/>
            </g>
        </g>
    </g>
</svg>
