<svg width="33" height="33" viewBox="0 0 33 33" xmlns="http://www.w3.org/2000/svg">
    <g fill="none" fill-rule="evenodd">
        <circle cx="16.5" cy="16.5" r="16.5" fill="#F5F5F6"/>
        <path d="M16.08 8.014c.782-.05 1.572.03 2.326.242.378.116.753.251 1.095.453.509.291.959.705 1.241 1.223.251.455.372.97.421 1.484.055.585.043 1.175.042 1.763v3.332c.002.367-.016.737.06 1.097.067.355.221.689.424.986.144.213.303.416.451.625.115.168.149.428-.02.572-.594.502-1.19 1-1.771 1.516-.095.081-.198.168-.327.184a.494.494 0 0 1-.39-.104 5.226 5.226 0 0 1-.838-.844c-.168-.225-.32-.461-.48-.691-.34.333-.691.66-1.08.936a4.173 4.173 0 0 1-1.4.64c-.537.135-1.094.147-1.644.149-.371-.02-.746-.058-1.1-.18a3.175 3.175 0 0 1-1.163-.629 3.164 3.164 0 0 1-.954-1.453c-.178-.539-.22-1.112-.212-1.675.032-.764.256-1.528.694-2.159.355-.523.847-.95 1.397-1.258.594-.335 1.256-.526 1.922-.662 1.01-.207 2.04-.278 3.063-.39-.006-.427.021-.856-.03-1.28-.044-.37-.185-.745-.475-.99-.342-.29-.808-.405-1.25-.377-.5.012-1.007.196-1.364.554a1.7 1.7 0 0 0-.45.862c-.038.184-.154.372-.344.425-.075.03-.154.009-.23 0-.708-.07-1.415-.15-2.123-.228a.524.524 0 0 1-.284-.122.39.39 0 0 1-.121-.383 4.016 4.016 0 0 1 1.156-2.216c.64-.626 1.483-1.006 2.346-1.21a7.583 7.583 0 0 1 1.412-.192zm.054 7.231c-.465.117-.929.307-1.277.646-.365.342-.554.837-.589 1.33-.02.437.022.895.241 1.283.205.372.596.637 1.021.669.37.053.744-.05 1.065-.23.32-.197.583-.48.773-.804.23-.398.375-.843.425-1.3.065-.586.04-1.178.042-1.767-.57.007-1.145.038-1.701.173z" fill="#000"/>
        <g fill="#FF9201" fill-rule="nonzero">
            <path d="M25.046 21.102c.37-.038.743-.032 1.11.018.248.034.506.075.72.212.073.042.092.13.106.206.037.239.011.482-.023.719-.075.469-.215.928-.417 1.358a3.635 3.635 0 0 1-.836 1.183c-.068.061-.133.139-.227.157-.053.006-.125.003-.15-.052-.036-.082.008-.166.035-.242.18-.448.353-.9.49-1.362.08-.28.155-.565.162-.858-.001-.127-.015-.278-.123-.363a.862.862 0 0 0-.347-.135 3.875 3.875 0 0 0-.802-.038c-.484.005-.964.063-1.445.12-.064.005-.136.016-.194-.019-.068-.055-.042-.161.013-.216.1-.107.233-.175.358-.247.482-.265 1.027-.389 1.57-.44z"/>
            <path d="M6.092 21.511c.12-.055.235.026.335.082 1.4.808 2.906 1.424 4.455 1.879.537.145 1.074.292 1.621.393.307.057.613.126.922.17a23.27 23.27 0 0 0 1.735.202c1.382.1 2.776.07 4.15-.12 1.125-.137 2.233-.394 3.319-.714a23.457 23.457 0 0 0 2.048-.739c.173-.068.416.01.465.204.041.15-.071.287-.19.365a11.86 11.86 0 0 1-2.296 1.293c-1.17.508-2.406.855-3.662 1.07-.591.088-1.184.174-1.783.192-.601.04-1.205.018-1.807-.014a16.912 16.912 0 0 1-2.547-.38c-.522-.135-1.046-.269-1.553-.456a15.31 15.31 0 0 1-5.137-3.026c-.063-.059-.146-.112-.162-.204a.173.173 0 0 1 .087-.197z"/>
        </g>
    </g>
</svg>
