<svg width="33" height="33" viewBox="0 0 33 33" xmlns="http://www.w3.org/2000/svg">
    <g fill="none" fill-rule="evenodd">
        <circle cx="16.5" cy="16.5" r="16.5" fill="#F5F5F6"/>
        <path d="M22.158 25.345c-1.094 1.061-2.3.896-3.45.396-1.222-.51-2.34-.543-3.63 0-1.609.694-2.462.492-3.43-.396-5.467-5.628-4.66-14.201 1.553-14.524 1.507.08 2.562.833 3.45.896 1.319-.268 2.582-1.037 3.994-.936 1.696.137 2.965.807 3.812 2.011-3.49 2.098-2.662 6.697.543 7.988-.641 1.685-1.465 3.349-2.844 4.58l.002-.015zM16.53 10.761C16.366 8.259 18.394 6.2 20.725 6c.321 2.885-2.622 5.043-4.195 4.76z" fill="#666" fill-rule="nonzero"/>
    </g>
</svg>
