<svg width="33" height="33" viewBox="0 0 33 33" xmlns="http://www.w3.org/2000/svg">
    <g fill="none" fill-rule="evenodd">
        <circle fill="#FFE7EC" cx="16.5" cy="16.5" r="16.5"/>
        <g fill-rule="nonzero">
            <path d="M20.084 26.168a2.492 2.492 0 0 1-2.49-2.49v-3.797a1.31 1.31 0 0 0-1.308-1.308 1.31 1.31 0 0 0-1.307 1.308v3.797a2.492 2.492 0 0 1-2.49 2.49A2.492 2.492 0 0 1 10 23.678v-3.797c0-1.378.45-2.708 1.277-3.797A6.273 6.273 0 0 1 10 12.287V8.489A2.492 2.492 0 0 1 12.49 6a2.492 2.492 0 0 1 2.489 2.49v3.797a1.31 1.31 0 0 0 1.308 1.307 1.31 1.31 0 0 0 1.307-1.307V8.489A2.492 2.492 0 0 1 20.084 6a2.492 2.492 0 0 1 2.489 2.49v3.797c0 1.378-.45 2.708-1.276 3.797a6.277 6.277 0 0 1 1.276 3.797v3.797a2.492 2.492 0 0 1-2.49 2.49z" fill="#FF9FB4"/>
            <path d="M16.287 13.594a1.31 1.31 0 0 0 1.307-1.307V8.489A2.492 2.492 0 0 1 20.084 6a2.492 2.492 0 0 1 2.489 2.49v3.797c0 1.378-.45 2.708-1.276 3.797a6.277 6.277 0 0 1 1.276 3.797v3.797a2.492 2.492 0 0 1-2.49 2.49 2.492 2.492 0 0 1-2.489-2.49v-3.797a1.31 1.31 0 0 0-1.308-1.308v-4.979z" fill="#F96794"/>
        </g>
    </g>
</svg>
