<svg width="33" height="33" viewBox="0 0 33 33" xmlns="http://www.w3.org/2000/svg">
    <g fill="none" fill-rule="evenodd">
        <circle fill="#FFE7EC" cx="16.5" cy="16.5" r="16.5"/>
        <g fill-rule="nonzero">
            <path d="M25.801 13.278a5.807 5.807 0 0 0-1.95-3.094C22.916 9.42 21.77 9 20.626 9c-.877 0-1.714.236-2.488.702-.61.368-1.16.869-1.64 1.493C15.407 9.773 13.966 9 12.372 9c-1.144 0-2.288.42-3.223 1.184a5.808 5.808 0 0 0-1.95 3.094c-.344 1.35-.41 3.506 1.226 6.117 1.515 2.416 4.142 4.655 7.807 6.654a.555.555 0 0 0 .533 0c3.666-2 6.293-4.238 7.81-6.654 1.637-2.611 1.57-4.768 1.226-6.117z" fill="#FF5B5B"/>
            <path d="M25.801 13.278a5.807 5.807 0 0 0-1.95-3.094C22.916 9.42 21.77 9 20.626 9c-.877 0-1.714.236-2.488.702a5.945 5.945 0 0 0-1.638 1.492v14.923a.557.557 0 0 0 .265-.068c3.666-2 6.293-4.238 7.809-6.654 1.638-2.611 1.571-4.768 1.227-6.117z" fill="#FF0059"/>
            <path d="m11.036 17.807.695-1.389 1.886 3.774a.557.557 0 0 0 .996 0l1.887-3.774.694 1.39a.556.556 0 0 0 .498.307h4.22a.557.557 0 0 0 0-1.113h-3.876l-1.038-2.077a.557.557 0 0 0-.996 0l-1.887 3.773-1.886-3.773a.557.557 0 0 0-.996 0l-1.038 2.077H7.319c.107.357.244.729.417 1.113h2.803c.21 0 .403-.12.497-.308z" fill="#FCFCFC"/>
            <path d="M21.913 17.002h-3.877l-1.038-2.077a.557.557 0 0 0-.498-.308v1.802l.694 1.388a.557.557 0 0 0 .498.308h4.22a.557.557 0 0 0 0-1.113z" fill="#EBECED"/>
        </g>
    </g>
</svg>
