<svg width="33" height="33" viewBox="0 0 33 33" xmlns="http://www.w3.org/2000/svg">
    <g fill="none" fill-rule="evenodd">
        <circle fill="#CFF9EB" cx="16.5" cy="16.5" r="16.5"/>
        <g fill-rule="nonzero">
            <path d="M26.402 14.23a2.1 2.1 0 0 1-2.144.48l-3.695 3.735-3.211.305a2.721 2.721 0 0 1-.657-1.137v-.023c-.222-.727-.035-1.196-.586-1.734l-1.265-1.641 4.445-4.473a2.082 2.082 0 0 1 .48-2.144 2.065 2.065 0 0 1 2.907 0l1.863 1.863 1.863 1.863c.797.809.797 2.11 0 2.906z" fill="#CAE8F9"/>
            <path d="M26.402 14.23a2.1 2.1 0 0 1-2.144.48l-3.695 3.735-3.211.305a2.721 2.721 0 0 1-.657-1.137v-.023l7.844-8.13 1.863 1.864c.797.809.797 2.11 0 2.906z" fill="#B7E0F6"/>
            <path d="m20.563 18.445-7.442 7.442A3.756 3.756 0 0 1 10.461 27c-.785 0-1.547-.246-2.156-.75a3.567 3.567 0 0 1-1.301-2.555 3.521 3.521 0 0 1 1.031-2.66l5.707-5.707 1.102-1.113.27.023c.105 0 1.113.082 1.827.785.504.504.68 1.149.762 1.524.024.164.035.27.035.305 0 .011.047.668.446 1.078.398.386 1.066.445 1.066.445l1.313.07z" fill="#19DEC1"/>
            <path d="m20.563 18.445-7.442 7.442A3.756 3.756 0 0 1 10.461 27c-.785 0-1.547-.246-2.156-.75l9.398-9.703c.024.164.035.27.035.305 0 .011.047.668.446 1.078.398.386 1.066.445 1.066.445l1.313.07z" fill="#17CEB4"/>
            <g transform="translate(10.402 17.962)" fill="#CAE8F9">
                <circle cx="4.261" cy=".586" r="1"/>
                <circle cx=".586" cy="4.261" r="1"/>
                <path d="M3.844 3.484a.58.58 0 0 1-.832 0 .465.465 0 0 1-.14-.317.536.536 0 0 1 .14-.504.569.569 0 0 1 .492-.164c.129.012.246.07.34.164a.566.566 0 0 1 0 .82z"/>
            </g>
            <path d="M14.246 21.445a.58.58 0 0 1-.832 0 .465.465 0 0 1-.14-.316l.632-.668c.13.012.246.07.34.164a.566.566 0 0 1 0 .82z" fill="#B7E0F6"/>
        </g>
    </g>
</svg>
