<svg width="33" height="33" viewBox="0 0 33 33" xmlns="http://www.w3.org/2000/svg">
    <g fill="none" fill-rule="evenodd">
        <circle fill="#FFF2CE" cx="16.5" cy="16.5" r="16.5"/>
        <g fill-rule="nonzero">
            <path d="M24.795 24H8.205a.554.554 0 0 1-.557-.55V10.32h17.704v13.13c0 .304-.25.55-.557.55z" fill="#F4DA90"/>
            <path d="M16.5 10.32V24h8.296a.553.553 0 0 0 .556-.55V10.32H16.5z" fill="#E7AA60"/>
            <g>
                <path d="M25.443 10.723H7.557a.553.553 0 0 1-.557-.55V8.55c0-.304.25-.55.557-.55h11.775l1.817.367L22.966 8h2.477c.308 0 .557.246.557.55v1.623c0 .304-.25.55-.557.55z" fill="#E7AA60"/>
                <path d="M25.443 8h-2.477l-1.817.367L19.332 8H16.5v2.723h8.943a.553.553 0 0 0 .557-.55V8.55c0-.304-.25-.55-.557-.55z" fill="#E48D3C"/>
            </g>
            <path d="m22.454 14.652-1.305-.527-1.305.527a.37.37 0 0 1-.512-.34V8.008h3.633v6.306a.37.37 0 0 1-.511.34z" fill="#DE6E48"/>
            <g>
                <path d="M14.433 22H9.64a.567.567 0 0 1-.567-.567v-3.305c0-.313.254-.567.567-.567h4.793c.313 0 .567.254.567.567v3.305a.567.567 0 0 1-.567.567z" fill="#F7FBFF"/>
                <path fill="#E0E4F4" d="M13.868 18.695v2.171h-3.663v-2.17z"/>
                <g fill="#E7AA60">
                    <path d="M13.308 14.134H9.566a.567.567 0 0 1 0-1.134h3.742a.567.567 0 0 1 0 1.134zM13.308 16.385H9.566a.567.567 0 0 1 0-1.134h3.742a.567.567 0 0 1 0 1.134z"/>
                </g>
            </g>
        </g>
    </g>
</svg>
