<svg width="33" height="33" viewBox="0 0 33 33" xmlns="http://www.w3.org/2000/svg">
    <g fill="none" fill-rule="evenodd">
        <circle fill="#FFF2CE" cx="16.5" cy="16.5" r="16.5"/>
        <g fill-rule="nonzero">
            <path d="m20.505 10.625-.877 1.31h-6.14l-.878-1.31 1.597-4.936A2.475 2.475 0 0 1 16.525 4h.026c1.074 0 2.017.668 2.357 1.69l1.597 4.935z" fill="#EC9046"/>
            <path d="m20.505 10.625-.877 1.31h-3.103V4h.026c1.074 0 2.017.668 2.357 1.69l1.597 4.935z" fill="#E6733C"/>
            <path fill="#E0E4EC" d="m21.815 14.553-.878 1.31h-8.759l-.877-1.31 1.31-3.928h7.894z"/>
            <path fill="#D1D7E3" d="m21.815 14.553-.878 1.31h-4.412v-5.238h3.98z"/>
            <path fill="#EC9046" d="m23.124 18.481-.877 1.31H10.869l-.877-1.31 1.309-3.928h10.514z"/>
            <path fill="#E6733C" d="m23.124 18.481-.877 1.31h-5.722v-5.238h5.29z"/>
            <path d="M24.171 23.68H8.944a.643.643 0 0 1-.406-.826l1.454-4.373h13.132l1.453 4.373a.643.643 0 0 1-.406.825z" fill="#E0E4EC"/>
            <path d="M24.171 23.68h-7.646V18.48h6.599l1.453 4.373a.643.643 0 0 1-.406.825z" fill="#D1D7E3"/>
            <path d="M25.036 22.41H8.014a1.961 1.961 0 0 0-1.963 1.963c0 1.087.877 1.964 1.963 1.964h17.022a1.961 1.961 0 0 0 1.963-1.964 1.961 1.961 0 0 0-1.963-1.964z" fill="#F6B73C"/>
            <path d="M27 24.373a1.961 1.961 0 0 1-1.964 1.964h-8.511V22.41h8.51c1.087 0 1.965.878 1.965 1.964z" fill="#F29737"/>
        </g>
    </g>
</svg>
