<svg width="33" height="33" viewBox="0 0 33 33" xmlns="http://www.w3.org/2000/svg">
    <g fill="none" fill-rule="evenodd">
        <circle cx="16.5" cy="16.5" r="16.5" fill="#FCDFF8"/>
        <g transform="translate(7 8)" fill-rule="nonzero">
            <path d="M16.936 10.28v2.226a.557.557 0 0 1-1.113 0v-1.67h-5.777v1.67a.557.557 0 0 1-1.113 0v-1.67H3.157v1.67a.557.557 0 0 1-1.113 0v-2.227c0-.307.249-.556.556-.556h6.333v-3.35a.557.557 0 1 1 1.113 0v3.35h6.333c.308 0 .557.249.557.556z" fill="#5E54AC"/>
            <path d="M16.936 10.28v2.226a.557.557 0 0 1-1.113 0v-1.67h-5.777v1.67c0 .307-.249.556-.556.556V5.817c.307 0 .556.249.556.557v3.349h6.333c.308 0 .557.249.557.556z" fill="#453D81"/>
            <path d="M16.186 1.661v3.608c0 .916-.745 1.661-1.66 1.661H4.454c-.915 0-1.66-.745-1.66-1.66V1.66C2.793.745 3.538 0 4.453 0h10.072c.915 0 1.66.745 1.66 1.661z" fill="#DF5CCB"/>
            <path d="M16.186 1.661v3.608c0 .916-.745 1.661-1.66 1.661H9.49V0h5.036c.915 0 1.66.745 1.66 1.661z" fill="#C63EBA"/>
            <circle fill="#4793FF" cx="9.49" cy="14.732" r="2.621"/>
            <circle fill="#4793FF" cx="2.621" cy="14.732" r="2.621"/>
            <circle fill="#525CDD" cx="16.379" cy="14.732" r="2.621"/>
            <path d="M12.11 14.732a2.624 2.624 0 0 1-2.62 2.621v-5.241a2.624 2.624 0 0 1 2.62 2.62z" fill="#525CDD"/>
            <circle fill="#F0F7FF" cx="6.581" cy="3.465" r="1"/>
            <circle fill="#DFE7F4" cx="12.398" cy="3.465" r="1"/>
            <circle fill="#F0F7FF" cx="9.49" cy="14.732" r="1"/>
            <circle fill="#F0F7FF" cx="2.6" cy="14.732" r="1"/>
            <circle fill="#DFE7F4" cx="16.379" cy="14.732" r="1"/>
            <circle fill="#F0F7FF" cx="9.49" cy="3.465" r="1"/>
            <g fill="#DFE7F4">
                <path d="M10.49 3.465c0 .308-.448.557-1 .557V2.908c.552 0 1 .25 1 .557zM10.49 14.732c0 .308-.448.557-1 .557v-1.113c.552 0 1 .25 1 .556z"/>
            </g>
        </g>
    </g>
</svg>
