<svg width="33" height="33" viewBox="0 0 33 33" xmlns="http://www.w3.org/2000/svg">
    <g fill="none" fill-rule="evenodd">
        <circle fill="#FFF2CE" cx="16.5" cy="16.5" r="16.5"/>
        <g fill-rule="nonzero">
            <path d="M23.225 15.888a.61.61 0 0 0-.555-.362h-4.995l4.307-7.621a.599.599 0 0 0 0-.603.583.583 0 0 0-.518-.302h-7.24a.587.587 0 0 0-.567.41l-3.62 10.94a.581.581 0 0 0 .073.543c.12.157.302.253.495.253h5.115l-3.257 7.601a.593.593 0 0 0 .23.749c.253.156.578.12.771-.11l3.173-3.57 6.48-7.288a.596.596 0 0 0 .108-.64z" fill="#FFDA2D"/>
            <path d="m23.117 16.528-6.48 7.288V7h4.827c.217 0 .41.109.518.302a.599.599 0 0 1 0 .603l-4.307 7.621h4.995a.596.596 0 0 1 .446 1.001z" fill="#FDBF00"/>
        </g>
    </g>
</svg>
