<svg width="24.421" height="24" viewBox="0 0 24.421 24" xmlns="http://www.w3.org/2000/svg">
    <g fill="none" fill-rule="nonzero">
        <path d="M18.95 17.686z" fill="#59C36A"/>
        <path d="M5.944 17.686h.001z" fill="#97DE3D"/>
        <path d="M15.995 17.648H8.849a.715.715 0 0 1-.715-.716v-2.864c0-.396.32-.717.715-.717h1.43v-2.148h-1.43a.715.715 0 0 1-.715-.716V7.622c0-.396.32-.716.715-.716.606 0 1.147-.384 1.348-.955a.715.715 0 0 1 .674-.477h2.98c.395 0 .715.32.715.716v7.161h1.429c.395 0 .714.32.714.717v2.864c0 .396-.32.716-.714.716z" fill="#FFE666"/>
        <path d="M12.422 17.648h3.573c.395 0 .714-.32.714-.716v-2.864a.715.715 0 0 0-.714-.717h-1.43V6.19a.715.715 0 0 0-.714-.716h-1.429v12.174z" fill="#FABE2C"/>
        <path d="M23.888 13.81c-.067-.017-1.277-.328-2.553-.078a9.261 9.261 0 0 0 .187-1.652c.717-.316 1.943-1.003 2.522-2.184.828-1.69.033-3.707-.002-3.792a.715.715 0 0 0-.875-.416c-.08.025-1.776.566-2.734 1.858a9.468 9.468 0 0 0-.987-1.483c.301-.687.725-1.99.328-3.255-.564-1.796-2.528-2.706-2.61-2.744a.715.715 0 0 0-.911.287c-.047.079-1.138 1.952-.574 3.748.498 1.588 2.09 2.483 2.51 2.695 4.367 5.1.728 13.017-5.978 13.017-6.725 0-10.38-7.958-5.938-13.065.513-.267 1.969-1.14 2.45-2.64.574-1.792-.505-3.672-.551-3.751a.715.715 0 0 0-.909-.293C7.18.1 5.21.997 4.636 2.79c-.412 1.285.025 2.614.323 3.293a9.55 9.55 0 0 0-.975 1.463C3.02 6.258 1.311 5.784 1.23 5.762a.715.715 0 0 0-.85.423C.346 6.27-.45 8.286.376 9.977c.576 1.178 1.794 1.827 2.518 2.122.014.552.078 1.102.19 1.645-1.271-.254-2.48.048-2.547.066a.717.717 0 0 0-.52.845c.02.093.506 2.281 2.107 3.248.699.422 1.486.544 2.16.544.463 0 .873-.058 1.163-.114.328.351.68.674 1.054.967-.336.103-.67.253-.982.466-1.553 1.06-1.855 3.207-1.867 3.298a.717.717 0 0 0 .538.791c.043.011.578.14 1.296.14.735 0 1.663-.136 2.449-.672.948-.648 1.43-1.7 1.664-2.443a9.436 9.436 0 0 0 2.611.365c.892 0 1.757-.122 2.578-.355.237.741.731 1.818 1.706 2.466.768.511 1.664.644 2.387.644.753 0 1.32-.143 1.365-.155a.717.717 0 0 0 .528-.797c-.013-.09-.34-2.235-1.905-3.276a3.616 3.616 0 0 0-.978-.452 9.16 9.16 0 0 0 1.098-1.007c.299.06.705.117 1.162.117.664 0 1.433-.122 2.127-.535 1.607-.957 2.106-3.143 2.126-3.236a.717.717 0 0 0-.516-.848z" fill="#97DE3D"/>
        <path d="M16.494 23.356c.768.511 1.663.644 2.387.644.753 0 1.32-.143 1.365-.155a.717.717 0 0 0 .528-.797c-.013-.09-.34-2.235-1.905-3.276a3.616 3.616 0 0 0-.978-.452 9.16 9.16 0 0 0 1.098-1.007c.299.06.705.117 1.162.117.664 0 1.433-.122 2.127-.535 1.607-.957 2.106-3.143 2.126-3.236a.717.717 0 0 0-.516-.848c-.067-.018-1.277-.329-2.553-.08a9.262 9.262 0 0 0 .187-1.651c.717-.316 1.943-1.003 2.522-2.184.828-1.69.033-3.707-.002-3.792a.715.715 0 0 0-.875-.416c-.08.025-1.776.566-2.734 1.858a9.468 9.468 0 0 0-.987-1.483c.301-.687.725-1.99.328-3.255-.564-1.796-2.528-2.706-2.61-2.744a.715.715 0 0 0-.911.287c-.047.079-1.138 1.952-.574 3.748.498 1.588 2.09 2.483 2.51 2.696 4.367 5.099.728 13.016-5.978 13.016v1.434c.891 0 1.756-.122 2.577-.355.237.741.731 1.818 1.706 2.466z" fill="#59C36A"/>
    </g>
</svg>
