<svg width="33" height="33" viewBox="0 0 33 33" xmlns="http://www.w3.org/2000/svg">
    <g fill="none" fill-rule="evenodd">
        <circle cx="16.5" cy="16.5" r="16.5" fill="#F5F5F6"/>
        <g fill-rule="nonzero">
            <path d="M24.408 13.502a.615.615 0 0 1-.615-.615V7.615a.615.615 0 0 1 1.23 0v5.272c0 .34-.275.615-.615.615z" fill="#DAD0CB"/>
            <path d="M24.37 12.272h-.621a.615.615 0 0 0-.615.615v3.954c0 .34.275.615.615.615h.659A2.59 2.59 0 0 0 27 14.83c-.018-1.425-1.206-2.558-2.63-2.558z" fill="#E7DFDD"/>
            <path d="M8.63 12.272h.621c.34 0 .615.275.615.615v3.954c0 .34-.275.615-.615.615h-.659A2.59 2.59 0 0 1 6 14.83c.018-1.425 1.206-2.558 2.63-2.558z" fill="#ECEAE7"/>
            <path d="M23.749 22.728H9.25a.615.615 0 0 1-.615-.615v-7.249C8.636 10.528 12.164 7 16.5 7s7.864 3.528 7.864 7.864v7.249c0 .34-.275.615-.615.615z" fill="#FFF5E6"/>
            <path d="M24.364 22.113v-7.249C24.364 10.528 20.836 7 16.5 7v15.728h7.249c.34 0 .615-.275.615-.615z" fill="#ECEAE7"/>
            <path d="M18.477 20.092h-3.954a3.255 3.255 0 0 1-3.251-3.251v-1.977A5.234 5.234 0 0 1 16.5 9.636a5.234 5.234 0 0 1 5.228 5.228v1.977a3.255 3.255 0 0 1-3.251 3.251z" fill="#82D2FF"/>
            <path d="M21.728 16.841v-1.977A5.234 5.234 0 0 0 16.5 9.636v10.456h1.977a3.255 3.255 0 0 0 3.251-3.251z" fill="#419BF3"/>
            <path d="M24.408 25.364H8.592a.615.615 0 0 1-.615-.615v-2.636c0-.34.275-.615.615-.615h15.816c.34 0 .615.275.615.615v2.636c0 .34-.275.615-.615.615z" fill="#ECEAE7"/>
            <path d="M20.366 16.226h-1.318a.615.615 0 0 0 0 1.23h1.318c.496 0 .959-.14 1.353-.382.005-.077.01-.154.01-.233v-1.977c0 .75-.612 1.362-1.363 1.362z" fill="#0064E6"/>
            <path d="M25.023 24.749v-2.636a.615.615 0 0 0-.615-.615H16.5v3.866h7.908c.34 0 .615-.275.615-.615z" fill="#E7DFDD"/>
        </g>
    </g>
</svg>
