<svg width="33" height="33" viewBox="0 0 33 33" xmlns="http://www.w3.org/2000/svg">
    <g fill="none" fill-rule="evenodd">
        <circle fill="#F5F5F6" cx="16.5" cy="16.5" r="16.5"/>
        <g fill-rule="nonzero">
            <path d="m6.123 16.79 1.819-2.425-.616-3.695a.615.615 0 0 1 .708-.708l3.412.569 1.167-4.085a.615.615 0 0 1 1.027-.266l2.86 2.86 2.86-2.86a.615.615 0 0 1 1.026.266l1.168 4.085 3.412-.569a.615.615 0 0 1 .708.708l-.616 3.695 1.819 2.425a.615.615 0 0 1-.217.92l-3.954 1.976a.612.612 0 0 1-.275.065H10.57a.612.612 0 0 1-.275-.065L6.34 17.71a.615.615 0 0 1-.217-.92z" fill="#82D2FF"/>
            <path d="m22.706 19.686 3.954-1.977a.615.615 0 0 0 .217-.92l-1.819-2.424.616-3.695a.615.615 0 0 0-.708-.708l-3.412.569-1.167-4.085a.615.615 0 0 0-1.027-.266L16.5 9.04v10.711h5.931c.093 0 .187-.02.275-.065z" fill="#419BF3"/>
            <path d="M23.09 23.705h-.66a.615.615 0 0 1-.614-.615v-3.954c0-.34.275-.615.615-.615h.659a2.593 2.593 0 0 1 0 5.184z" fill="#FFA0A5"/>
            <path d="M9.91 23.705h.66c.339 0 .614-.275.614-.615v-3.954a.615.615 0 0 0-.615-.615H9.91a2.593 2.593 0 0 0 0 5.184z" fill="#FFC5C3"/>
            <path d="M18.477 27h-3.954c-2.52 0-4.57-2.05-4.57-4.57v-4.612c0-2.52 2.05-4.57 4.57-4.57h3.954c2.52 0 4.569 2.05 4.569 4.57v4.613c0 2.52-2.05 4.569-4.57 4.569z" fill="#FFEBE1"/>
            <path d="M23.046 22.43v-4.612c0-2.52-2.05-4.57-4.569-4.57H16.5V27h1.977c2.52 0 4.57-2.05 4.57-4.57z" fill="#FFC5C3"/>
            <path d="M23.09 18.52h-2.122a1.93 1.93 0 0 0-3.333-.601 2.467 2.467 0 0 0-1.135-.274c-.401 0-.788.095-1.135.274a1.93 1.93 0 0 0-3.333.602H9.91a.615.615 0 0 0 0 1.23h2.122a1.936 1.936 0 0 0 1.832 1.318 1.935 1.935 0 0 0 1.933-1.933v-.043a1.24 1.24 0 0 1 .703-.217c.255 0 .498.076.704.217l-.001.043c0 1.066.867 1.933 1.933 1.933.85 0 1.574-.553 1.832-1.318h2.122a.615.615 0 0 0 0-1.23z" fill="#005A6E"/>
            <path d="M17.203 19.136c0 1.066.867 1.933 1.933 1.933.85 0 1.575-.553 1.832-1.318h2.122a.615.615 0 0 0 0-1.23h-2.122a1.93 1.93 0 0 0-3.333-.601 2.467 2.467 0 0 0-1.135-.275v1.23c.255 0 .498.077.704.218l-.001.043z" fill="#003C46"/>
            <path d="M17.818 23.705h-2.636a.615.615 0 0 1 0-1.23h2.636a.615.615 0 0 1 0 1.23z" fill="#FFC5C3"/>
            <path d="M19.136 18.433a.704.704 0 1 0 .002 1.407.704.704 0 0 0-.002-1.407z" fill="#FFF5E6"/>
            <path d="M13.864 18.433a.704.704 0 1 0 .002 1.407.704.704 0 0 0-.002-1.407z" fill="#FFF"/>
            <path d="M18.433 23.09a.615.615 0 0 0-.615-.615H16.5v1.23h1.318c.34 0 .615-.275.615-.615z" fill="#FFA0A5"/>
        </g>
    </g>
</svg>
