<svg width="33" height="33" viewBox="0 0 33 33" xmlns="http://www.w3.org/2000/svg">
    <g fill="none" fill-rule="evenodd">
        <circle cx="16.5" cy="16.5" r="16.5" fill="#F5F5F6"/>
        <g fill-rule="nonzero">
            <path d="M9.91 17.774H8.592A2.595 2.595 0 0 1 6 15.182a2.595 2.595 0 0 1 2.592-2.592H9.91c.34 0 .615.275.615.615v3.954c0 .34-.275.615-.615.615z" fill="#3BE781"/>
            <path d="M24.408 17.774H23.09a.615.615 0 0 1-.615-.615v-3.954c0-.34.275-.615.615-.615h1.318A2.595 2.595 0 0 1 27 15.182a2.595 2.595 0 0 1-2.592 2.592z" fill="#1EBA66"/>
            <path d="M12.546 23.793h-2.02v-.703a.615.615 0 0 0-1.231 0v2.636a.615.615 0 0 0 1.23 0v-.703h2.021a.615.615 0 0 0 0-1.23z" fill="#2391A0"/>
            <path d="M23.09 22.475a.615.615 0 0 0-.615.615v.703h-2.021a.615.615 0 0 0 0 1.23h2.02v.703a.615.615 0 0 0 1.231 0V23.09a.615.615 0 0 0-.615-.615z" fill="#005A6E"/>
            <path d="M20.454 27h-7.908a.615.615 0 0 1-.615-.615v-4.613c0-.34.275-.615.615-.615h7.908c.34 0 .615.275.615.615v4.613c0 .34-.275.615-.615.615z" fill="#3BE781"/>
            <path d="M21.07 26.385v-4.613a.615.615 0 0 0-.616-.615H16.5V27h3.954c.34 0 .615-.275.615-.615z" fill="#1EBA66"/>
            <path d="M23.705 11.228v7.249a3.915 3.915 0 0 1-3.91 3.91h-6.59a3.915 3.915 0 0 1-3.91-3.91v-7.249c0-.34.275-.615.615-.615h13.18c.34 0 .615.275.615.615z" fill="#C7FF79"/>
            <path d="M23.705 18.477v-7.249a.615.615 0 0 0-.615-.615H16.5v11.774h3.295a3.915 3.915 0 0 0 3.91-3.91z" fill="#3BE781"/>
            <path d="M23.705 9.91v1.318H9.295V9.91A3.915 3.915 0 0 1 13.205 6h6.59a3.915 3.915 0 0 1 3.91 3.91z" fill="#1EBA66"/>
            <path d="M23.705 9.91A3.915 3.915 0 0 0 19.795 6H16.5v5.228h7.205V9.91z" fill="#008C4B"/>
            <path d="M14.936 12.502a.615.615 0 0 1-.615-.615V10.57a.615.615 0 0 1 1.23 0v1.318c0 .34-.275.615-.615.615zM11.808 12.502a.615.615 0 0 1-.616-.615V10.57a.615.615 0 0 1 1.231 0v1.318c0 .34-.275.615-.615.615z" fill="#3BE781"/>
            <path d="M13.864 15.797a.615.615 0 0 1-.615-.615v-.659a.615.615 0 0 1 1.23 0v.659c0 .34-.275.615-.615.615z" fill="#005A6E"/>
            <path d="M18.064 12.502a.615.615 0 0 1-.615-.615V10.57a.615.615 0 0 1 1.23 0v1.318c0 .34-.275.615-.615.615z" fill="#1EBA66"/>
            <path d="M19.136 15.797a.615.615 0 0 1-.615-.615v-.659a.615.615 0 0 1 1.23 0v.659c0 .34-.275.615-.615.615z" fill="#001E3C"/>
            <path d="M21.192 12.502a.615.615 0 0 1-.615-.615V10.57a.615.615 0 0 1 1.23 0v1.318c0 .34-.275.615-.615.615zM19.136 19.092h-5.272a.615.615 0 0 1 0-1.23h5.272a.615.615 0 0 1 0 1.23z" fill="#1EBA66"/>
            <path d="M19.751 18.477a.615.615 0 0 0-.615-.615H16.5v1.23h2.636c.34 0 .615-.275.615-.615z" fill="#008C4B"/>
        </g>
    </g>
</svg>
