<svg width="33" height="33" viewBox="0 0 33 33" xmlns="http://www.w3.org/2000/svg">
    <g fill="none" fill-rule="evenodd">
        <circle cx="16.5" cy="16.5" r="16.5" fill="#F5F5F6"/>
        <g fill-rule="nonzero">
            <path d="M16.5 14.411a2.211 2.211 0 0 0-2.208 2.21c0 1.217.99 2.208 2.208 2.208a2.211 2.211 0 0 0 2.208-2.209c0-1.218-.99-2.209-2.208-2.209z" fill="#FB6338"/>
            <path d="M16.5 27.24c-1.325 0-2.52-1.18-3.365-3.322-.772-1.96-1.197-4.551-1.197-7.298s.425-5.338 1.197-7.298C13.98 7.18 15.175 6 16.5 6c1.325 0 2.52 1.18 3.365 3.322.772 1.96 1.197 4.551 1.197 7.298s-.425 5.339-1.197 7.298c-.845 2.142-2.04 3.322-3.365 3.322zm0-19.995c-.757 0-1.582.947-2.207 2.534-.716 1.817-1.11 4.247-1.11 6.841 0 2.594.394 5.024 1.11 6.841.625 1.587 1.45 2.535 2.207 2.535.757 0 1.582-.948 2.207-2.535.716-1.817 1.11-4.247 1.11-6.84 0-2.595-.394-5.025-1.11-6.842-.625-1.587-1.45-2.534-2.207-2.534z" fill="#C2DCFF"/>
            <g fill="#8AB9F8">
                <path d="M21.136 23.184c-2.082-.311-4.539-1.239-6.917-2.612s-4.41-3.038-5.72-4.686c-1.432-1.803-1.856-3.428-1.194-4.576.663-1.148 2.282-1.593 4.56-1.254 2.081.311 4.538 1.239 6.916 2.612s4.41 3.038 5.72 4.686c1.432 1.803 1.856 3.428 1.194 4.576-.83 1.436-2.926 1.497-4.56 1.254zM8.383 11.932c-.378.656.03 1.844 1.09 3.18 1.216 1.529 3.122 3.085 5.368 4.382 2.246 1.297 4.547 2.17 6.479 2.459 1.686.251 2.919.01 3.297-.645.379-.656-.03-1.844-1.09-3.18-1.216-1.528-3.122-3.085-5.368-4.382-2.246-1.297-4.547-2.17-6.478-2.459-1.012-.15-2.791-.233-3.298.645z"/>
                <path d="M25.695 11.31c-.663-1.148-2.282-1.593-4.56-1.254-2.081.311-4.538 1.239-6.916 2.612s-4.41 3.038-5.72 4.686c-1.432 1.803-1.856 3.428-1.194 4.576.83 1.436 2.927 1.497 4.56 1.254 2.081-.311 4.538-1.239 6.916-2.612s4.41-3.038 5.72-4.686c1.432-1.803 1.856-3.428 1.194-4.576zm-7.536 8.184c-2.246 1.297-4.547 2.17-6.478 2.459-1.687.251-2.92.01-3.298-.645-.378-.656.03-1.844 1.09-3.18 1.216-1.528 3.122-3.085 5.368-4.382 2.246-1.297 4.547-2.17 6.479-2.459 1.015-.151 2.79-.234 3.297.645 1.061 1.839-3.204 5.683-6.458 7.562z"/>
            </g>
            <path d="M25.695 11.31c-.663-1.148-2.282-1.593-4.56-1.254-1.418.212-3.011.71-4.635 1.442v1.371c1.695-.814 3.362-1.364 4.82-1.582 1.011-.15 2.79-.233 3.297.645 1.21 2.097-4.086 6.192-6.458 7.562-.552.319-1.107.612-1.659.877v1.372a25.503 25.503 0 0 0 2.28-1.171c2.38-1.373 4.41-3.038 5.72-4.686 1.433-1.803 1.857-3.428 1.195-4.576z" fill="#5B8AFF"/>
            <path d="M16.5 14.411v4.418a2.211 2.211 0 0 0 2.208-2.209c0-1.218-.99-2.209-2.208-2.209z" fill="#DE3800"/>
            <path d="M19.865 9.322C19.02 7.18 17.825 6 16.5 6v1.245c.757 0 1.582.947 2.207 2.534.716 1.817 1.11 4.247 1.11 6.841 0 2.594-.394 5.024-1.11 6.841-.625 1.587-1.45 2.535-2.207 2.535v1.244c1.325 0 2.52-1.18 3.365-3.322.772-1.96 1.197-4.551 1.197-7.298s-.425-5.338-1.197-7.298z" fill="#AED0FE"/>
            <path d="M24.5 17.354c-1.31-1.648-3.34-3.313-5.719-4.686a25.503 25.503 0 0 0-2.281-1.17v1.371c.552.265 1.107.558 1.659.877 2.246 1.297 4.152 2.854 5.368 4.383 1.06 1.335 1.469 2.523 1.09 3.179-.378.655-1.611.896-3.297.645-1.458-.218-3.125-.768-4.82-1.582v1.372c1.624.73 3.217 1.229 4.636 1.44 1.633.244 3.73.183 4.559-1.253.662-1.148.238-2.773-1.194-4.576z" fill="#5B8AFF"/>
        </g>
    </g>
</svg>
