<svg width="33" height="33" viewBox="0 0 33 33" xmlns="http://www.w3.org/2000/svg">
    <g fill="none" fill-rule="evenodd">
        <circle cx="16.5" cy="16.5" r="16.5" fill="#F5F5F6"/>
        <g fill-rule="nonzero">
            <path d="M16.5 26.44a.57.57 0 0 1-.218-.043C14.887 25.82 8 22.303 8 15.5 8 10.813 11.813 7 16.5 7c4.687 0 8.5 3.813 8.5 8.5 0 6.803-6.889 10.32-8.282 10.897a.57.57 0 0 1-.218.043z" fill="#C7FF79"/>
            <path d="M16.5 26.44V7c4.687 0 8.5 3.813 8.5 8.5 0 6.803-6.889 10.32-8.282 10.897a.57.57 0 0 1-.218.043z" fill="#3BE781"/>
            <path d="M19.55 17.9h-.61a1.79 1.79 0 0 1-1.79-1.79 3.62 3.62 0 0 1 3.62-3.62h.61a.57.57 0 0 1 .57.57v2.44a2.4 2.4 0 0 1-2.4 2.4z" fill="#005A6E"/>
            <path d="M13.45 17.9h.61c.968 0 1.79-.781 1.79-1.79a3.62 3.62 0 0 0-3.62-3.62h-.61a.57.57 0 0 0-.57.57v2.44a2.4 2.4 0 0 0 2.4 2.4z" fill="#2391A0"/>
            <path d="M17.72 22.17h-2.44a.57.57 0 0 1 0-1.14h2.44a.57.57 0 0 1 0 1.14z" fill="#3BE781"/>
            <path d="M17.72 21.03H16.5v1.14h1.22a.57.57 0 0 0 0-1.14z" fill="#1EBA66"/>
        </g>
    </g>
</svg>
