<svg width="33" height="33" viewBox="0 0 33 33" xmlns="http://www.w3.org/2000/svg">
    <g fill="none" fill-rule="evenodd">
        <circle cx="16.5" cy="16.5" r="16.5" fill="#FFF2CE"/>
        <g fill-rule="nonzero">
            <path d="M14.293 13.026a.615.615 0 0 1-.248.418l-2.417 1.757a.615.615 0 0 1-.829-.097C7.44 11.191 6.093 7.001 6.03 6.802c-.131-.382.184-.813.588-.802H9.9a.62.62 0 0 1 .57.38c.655 1.557 1.826 3.893 3.69 6.178.106.13.155.3.133.468z" fill="#FF8066"/>
            <path d="M26.992 6.704a.636.636 0 0 1-.021.098c-.063.2-1.409 4.39-4.77 8.302a.614.614 0 0 1-.828.097l-2.417-1.757a.615.615 0 0 1-.115-.886c1.864-2.285 3.035-4.621 3.689-6.179A.62.62 0 0 1 23.1 6h3.286a.619.619 0 0 1 .606.704z" fill="#FF4D4D"/>
            <path d="m16.5 11.742 2.51 6.893L16.5 27c-4.206 0-7.628-3.422-7.628-7.629 0-4.206 3.422-7.629 7.628-7.629z" fill="#FE9"/>
            <path d="M24.128 19.371c0 4.207-3.422 7.629-7.628 7.629V11.742c4.206 0 7.628 3.423 7.628 7.63z" fill="#FFE14D"/>
            <path d="m16.5 14.203 2.051 5.432-2.05 4.904a5.173 5.173 0 0 1-5.168-5.168 5.173 5.173 0 0 1 5.167-5.168z" fill="#FFE14D"/>
            <path d="M21.668 19.371A5.173 5.173 0 0 1 16.5 24.54V14.203a5.173 5.173 0 0 1 5.168 5.168z" fill="#FFC34D"/>
            <path d="m16.5 16.984.358 2.232-.358 2.87a.615.615 0 0 1-.611-.614v-3.258h-.623a.615.615 0 1 1 0-1.23H16.5z" fill="#B25F49"/>
            <path d="M17.12 17.599v3.873c0 .34-.276.615-.616.615H16.5v-5.103h.004c.34 0 .615.275.615.615z" fill="#804231"/>
        </g>
    </g>
</svg>
