<svg width="33" height="33" viewBox="0 0 33 33" xmlns="http://www.w3.org/2000/svg">
    <g fill="none" fill-rule="evenodd">
        <circle cx="16.5" cy="16.5" r="16.5" fill="#F5F5F6"/>
        <g fill-rule="nonzero">
            <path d="M15.117 15.571h-.027a.615.615 0 0 1-.589-.639c.007-.16.193-3.964 3.352-5.877a.615.615 0 1 1 .637 1.053c-1.073.65-1.862 1.657-2.346 2.993-.372 1.028-.413 1.873-.413 1.882a.616.616 0 0 1-.614.588z" fill="#C76E59"/>
            <path d="M15.764 14.432a.615.615 0 0 1-.493.494 5.822 5.822 0 0 1-1.274.068c-.99-.052-1.76-.347-2.29-.876-.529-.53-.823-1.3-.876-2.29-.037-.692.064-1.25.069-1.274a.615.615 0 0 1 .493-.493 5.977 5.977 0 0 1 1.274-.069c.99.053 1.76.348 2.29.877.264.265.47.59.616.972.146.383.233.822.26 1.318.036.692-.065 1.25-.069 1.273z" fill="#2EE66B"/>
            <path d="m15.13 14.341 2.24 4.77-2.24 6.386a.61.61 0 0 0-.36.106c-.53.363-1.096.549-1.657.549-.163 0-.326-.016-.487-.048-.79-.154-1.522-.614-2.176-1.37-.493-.568-.943-1.305-1.338-2.19-.603-1.354-1.28-3.402-1.075-5.477.097-.975.432-1.884.943-2.559.596-.787 1.387-1.224 2.286-1.265.85-.039 1.767.222 2.582.735.38.238.818.364 1.268.364h.013z" fill="#FF80AA"/>
            <path d="M22.216 17.342c.125 1.98-.52 3.911-1.096 5.202-.92 2.06-2.134 3.291-3.513 3.56-.718.14-1.46-.033-2.145-.501a.608.608 0 0 0-.333-.106V14.341c.446-.002.88-.128 1.255-.363.815-.513 1.732-.774 2.583-.735a2.832 2.832 0 0 1 1.52.52l.008.005.013.01.03.025.02.016a.477.477 0 0 1 .025.025l.02.022a.508.508 0 0 1 .04.05l.014.021.02.034.008.014 1.502 2.848a.612.612 0 0 1 .03.509z" fill="#FF4D88"/>
            <path d="m15.298 21.702 1.412-.922c.397-.56.671-.998 1.069-1.558l-.12-.501-.316.065-2.045 2.046c-.24.24-.24.63 0 .87z" fill="#E6F0F2"/>
            <path d="m16.168 21.702 2.046-2.046.016-.368-.451-.066-2.48 2.48c.24.24.629.24.87 0zM25.486 11.515l.778-.364.092-.507-.193-.57-1.112-.735-.87.87.346.894.959.412z" fill="#CFDFE6"/>
            <path d="m26.79 12.82.871-.87-.372-.912-.933-.394-.87.87.369.917.936.388z" fill="#B9C9D9"/>
            <path d="m26.356 10.644.736-.176.134-.694L25.63 8.18a.618.618 0 0 0-.87 0 .618.618 0 0 0 0 .87l1.595 1.595z" fill="#E6F0F2"/>
            <path d="M28.821 12.24a.618.618 0 0 0 0-.87l-1.595-1.596-.87.87 1.595 1.595a.618.618 0 0 0 .87 0z" fill="#CFDFE6"/>
            <path d="m22.502 14.498 1.78-1.192c.4-.597.802-1.194 1.204-1.791l-1.306-1.306a.629.629 0 0 0-.434-.18.629.629 0 0 0-.436.18l-2.548 2.549.936 1.499.804.241z" fill="#E6F0F2"/>
            <path d="m24.242 16.238 2.549-2.549a.627.627 0 0 0 .18-.434.627.627 0 0 0-.18-.435l-1.305-1.305-2.984 2.983.165.868 1.575.872z" fill="#CFDFE6"/>
            <path d="m17.779 19.222.925-.32.815-1.42-.355-.976-.95-.33-1.305 1.305c-.24.24-.24.63 0 .87l.87.87z" fill="#69F"/>
            <path d="M19.084 20.272a.63.63 0 0 0 .435-.18l1.305-1.306-.12-1.052-1.185-.253-1.74 1.74.87.87a.63.63 0 0 0 .435.18z" fill="#4D6AFF"/>
            <path d="m19.519 17.481 2.16-1.385.823-1.598-1.74-1.74-2.548 2.548c-.24.24-.24.63 0 .87l1.305 1.305z" fill="#80BFFF"/>
            <path d="M21.259 18.967a.629.629 0 0 0 .435-.18l2.548-2.549-1.74-1.74-2.983 2.983 1.305 1.305c.03.03.186.18.435.18z" fill="#69F"/>
        </g>
    </g>
</svg>
