<svg width="33" height="33" viewBox="0 0 33 33" xmlns="http://www.w3.org/2000/svg">
    <g fill="none" fill-rule="evenodd">
        <circle fill="#CFF9EB" cx="16.5" cy="16.5" r="16.5"/>
        <g fill-rule="nonzero">
            <path d="M12.457 17.174H8.369a.673.673 0 1 1 0-1.348h4.088a.673.673 0 1 1 0 1.348z" fill="#E6F6FF"/>
            <path d="M24.63 17.174h-4.087a.673.673 0 1 1 0-1.348h4.088a.673.673 0 1 1 0 1.348z" fill="#BEE3ED"/>
            <path fill="#004080" d="M21.217 15.152v2.696L16.5 19.195l-4.717-1.347v-2.696l4.717-1.347z"/>
            <path fill="#00264D" d="M21.217 17.848v-2.696L16.5 13.805v5.39z"/>
            <path d="M18.719 14.281a.674.674 0 0 1 0-.953l3.022-3.022a.674.674 0 1 1 .953.953l-3.022 3.022a.674.674 0 0 1-.953 0z" fill="#BEE3ED"/>
            <path d="M10.306 22.694a.674.674 0 0 1 0-.953l3.022-3.022a.674.674 0 1 1 .953.953l-3.022 3.022a.674.674 0 0 1-.953 0zM13.328 14.281l-3.022-3.022a.674.674 0 1 1 .953-.953l3.022 3.022a.674.674 0 1 1-.953.953z" fill="#E6F6FF"/>
            <path d="m21.741 22.694-3.022-3.022a.674.674 0 1 1 .953-.953l3.022 3.022a.674.674 0 1 1-.953.953z" fill="#BEE3ED"/>
            <path d="M16.5 13.13a.673.673 0 0 1-.674-.673V8.369a.673.673 0 1 1 1.348 0v4.088a.673.673 0 0 1-.674.674z" fill="#E6F6FF"/>
            <path d="M17.174 12.457V8.369a.673.673 0 0 0-.674-.674v5.436a.673.673 0 0 0 .674-.674z" fill="#BEE3ED"/>
            <path d="M16.5 25.305a.673.673 0 0 1-.674-.674v-4.088a.673.673 0 1 1 1.348 0v4.088a.673.673 0 0 1-.674.674z" fill="#E6F6FF"/>
            <path d="M17.174 24.63v-4.087a.673.673 0 0 0-.674-.674v5.436a.673.673 0 0 0 .674-.674z" fill="#BEE3ED"/>
            <path d="M8.4 24.6a2.023 2.023 0 0 1 0-2.859 2.023 2.023 0 0 1 2.859 0c.788.789.788 2.07 0 2.859a2.024 2.024 0 0 1-2.859 0z" fill="#28E7EF"/>
            <path d="M21.741 11.259a2.023 2.023 0 0 1 0-2.859 2.023 2.023 0 0 1 2.859 0c.788.789.788 2.07 0 2.859a2.024 2.024 0 0 1-2.859 0z" fill="#1CACE7"/>
            <path d="M7.021 18.521A2.024 2.024 0 0 1 5 16.5c0-1.115.907-2.021 2.021-2.021 1.115 0 2.022.906 2.022 2.021a2.024 2.024 0 0 1-2.022 2.021z" fill="#28E7EF"/>
            <path d="M25.979 18.521a2.024 2.024 0 0 1-2.022-2.021c0-1.115.907-2.021 2.022-2.021 1.114 0 2.021.906 2.021 2.021a2.024 2.024 0 0 1-2.021 2.021z" fill="#1CACE7"/>
            <path d="M8.4 11.259a2.023 2.023 0 0 1 0-2.859 2.023 2.023 0 0 1 2.859 0c.788.789.788 2.07 0 2.859a2.024 2.024 0 0 1-2.859 0z" fill="#28E7EF"/>
            <path d="M21.741 24.6a2.023 2.023 0 0 1 0-2.859 2.023 2.023 0 0 1 2.859 0c.788.789.788 2.07 0 2.859a2.024 2.024 0 0 1-2.859 0z" fill="#1CACE7"/>
            <path d="M16.5 9.043a2.024 2.024 0 0 1-2.021-2.022C14.479 5.907 15.385 5 16.5 5c1.115 0 2.021.907 2.021 2.021A2.024 2.024 0 0 1 16.5 9.043z" fill="#28E7EF"/>
            <path d="M18.521 7.021A2.024 2.024 0 0 0 16.5 5v4.043a2.024 2.024 0 0 0 2.021-2.022z" fill="#1CACE7"/>
            <path d="M16.5 28a2.024 2.024 0 0 1-2.021-2.021c0-1.115.906-2.022 2.021-2.022 1.115 0 2.021.907 2.021 2.022A2.024 2.024 0 0 1 16.5 28z" fill="#28E7EF"/>
            <path d="M18.521 25.979a2.024 2.024 0 0 0-2.021-2.022V28a2.024 2.024 0 0 0 2.021-2.021z" fill="#1CACE7"/>
            <g>
                <path d="M21.217 17.848v2.021a.667.667 0 0 1-.674.674h-8.086a.667.667 0 0 1-.674-.674v-2.021h9.434z" fill="#366AB3"/>
                <path d="M21.217 17.848H16.5v2.695h4.043a.667.667 0 0 0 .674-.674v-2.021z" fill="#004080"/>
                <path d="M21.217 13.13v2.022h-9.434v-2.021c0-.378.297-.674.674-.674h8.086c.377 0 .674.296.674.674z" fill="#366AB3"/>
                <path d="M16.5 15.152h4.717v-2.021a.667.667 0 0 0-.674-.674H16.5v2.695z" fill="#004080"/>
            </g>
        </g>
    </g>
</svg>
