<svg width="16" height="20" viewBox="0 0 16 20" xmlns="http://www.w3.org/2000/svg">
    <g fill="#FFF" fill-rule="nonzero">
        <path d="M13.363 10.627c-.023-2.53 2.032-3.746 2.124-3.806-1.156-1.721-2.953-1.956-3.594-1.983-1.529-.159-2.985.917-3.762.917-.777 0-1.973-.894-3.242-.869-1.67.025-3.207.986-4.067 2.507C-.91 10.45.379 14.984 2.068 17.468c.827 1.214 1.809 2.581 3.103 2.53 1.246-.05 1.716-.82 3.22-.82 1.503 0 1.928.82 3.242.795 1.34-.027 2.188-1.24 3.008-2.459.946-1.408 1.336-2.774 1.359-2.845-.03-.011-2.61-1.018-2.637-4.042M10.89 3.194c.687-.845 1.15-2.022 1.023-3.194-.989.041-2.186.671-2.894 1.517-.635.747-1.193 1.944-1.041 3.093 1.1.087 2.226-.572 2.912-1.416"/>
    </g>
</svg>
