<svg width="33" height="33" viewBox="0 0 33 33" xmlns="http://www.w3.org/2000/svg">
    <g fill="none" fill-rule="evenodd">
        <circle fill="#E8F5FB" cx="16.5" cy="16.5" r="16.5"/>
        <g fill-rule="nonzero">
            <path d="M11.273 21.114a4.558 4.558 0 0 0-.78.363c-.367.209-1.097.257-1.574-.01-.694-.4-1.678-.572-2.204-.639a.616.616 0 0 0-.694.61v2.486c-.022.626.76.627 1.063.744 1.195.704 2.81.856 4.189.457v-4.01z" fill="#86BFEC"/>
            <path d="M26.3 20.827c-.515.07-1.482.248-2.164.643-.467.264-1.23.21-1.543.022a1.86 1.86 0 0 0-.079-.046v3.832c.268.04.548.062.832.062.957 0 1.887-.236 2.62-.666.041-.026.278-.093.538-.144a.614.614 0 0 0 .496-.603v-2.491c0-.373-.33-.66-.7-.61zM27 8.313v2.492a.614.614 0 0 1-.497.602c-.3.062-.464.11-.537.144-1.349.813-3.44.88-4.878.19V7.796c.539.112 1.04.298 1.505.573.37.216 1.182.215 1.542-.021.781-.375 2.82-1.202 2.865-.035z" fill="#4894FF"/>
            <path d="M11.974 7.797v3.943c-1.497.698-3.486.633-4.89-.195a3.434 3.434 0 0 0-.557-.138.615.615 0 0 1-.506-.605V8.315a.62.62 0 0 1 .694-.61c.526.068 1.51.24 2.204.639.477.294 1.33.223 1.774-.1.39-.203.822-.353 1.28-.447z" fill="#86BFEC"/>
            <path d="M11.974 6.615v8.049c-1.874.401-1.629 1.394-3.695.364V6.615c0-.34.276-.615.616-.615h2.463c.34 0 .616.275.616.615zM11.974 16.13v10.234c0 .34-.276.615-.616.615H8.895a.615.615 0 0 1-.616-.615V16.13h3.695z" fill="#B2D7F3"/>
            <path d="M24.783 16.13v10.234c0 .34-.276.615-.616.615h-2.463a.615.615 0 0 1-.616-.615V16.13h3.695zM24.783 6.615v8.448c-.228.08-.672.305-.684.313-.352.21-1.52-.009-1.52-.009a4.905 4.905 0 0 0-1.491-.565V6.615c0-.34.276-.615.616-.615h2.463c.34 0 .616.275.616.615z" fill="#86BFEC"/>
            <path d="M27 14.874v2.492a.614.614 0 0 1-.497.603c-.307.063-.464.108-.542.146-1.48.892-3.828.877-5.295-.036-.402-.208-1.154-.2-1.513.033-.745.437-1.713.66-2.622.67v-3.694c.291-.01.604-.059.787-.178 1.452-.849 3.516-.9 5.05-.105.423.316 1.265.386 1.73.126.599-.373 1.656-.598 2.202-.666a.619.619 0 0 1 .7.61z" fill="#4894FF"/>
            <path d="M16.53 15.089v3.693c-.943 0-1.887-.23-2.654-.69-.252-.19-1.18-.22-1.497-.005-1.53.919-3.76.924-5.295.02a3.434 3.434 0 0 0-.557-.14.615.615 0 0 1-.506-.604c.072-.368-.195-2.731.209-2.948.437-.407 2.154.184 2.738.519.472.257 1.298.186 1.725-.129.73-.38 1.586-.562 2.43-.56.974 0 1.917.243 2.655.686.176.106.464.158.753.158z" fill="#86BFEC"/>
            <path d="M18.378 6.615v19.75c0 .339-.275.614-.615.614h-2.464a.615.615 0 0 1-.615-.615V6.614c0-.34.275-.614.615-.614h2.464c.34 0 .615.275.615.615z" fill="#B2D7F3"/>
            <g fill="#86BFEC">
                <path d="M21.088 7.796v3.945c-1.75-1.085-2.303.592-4.557.48-.944 0-1.888-.23-2.655-.69-.528-.304-1.384-.145-1.902.21V7.796c1.25-.267 2.774-.06 3.804.573.176.105.464.158.753.157.31-.001.593-.053.787-.178 1.076-.63 2.49-.818 3.77-.553zM21.088 20.918v3.945a5.196 5.196 0 0 1-.42-.222c-.402-.21-1.156-.2-1.516.032-.762.447-1.692.67-2.621.67-.944 0-1.888-.23-2.655-.69-.53-.304-1.383-.145-1.902.21v-3.944c1.25-.267 2.774-.06 3.804.573.176.106.464.158.753.158.31-.002.593-.054.787-.179 1.076-.63 2.49-.818 3.77-.553z"/>
                <path d="M18.378 6.615v19.75c0 .339-.275.614-.615.614H16.53V6h1.232c.34 0 .615.275.615.615z"/>
            </g>
            <path d="M21.088 7.796v3.945c-1.756-1.085-2.298.591-4.557.48V8.527c.31-.001.593-.053.787-.178 1.076-.63 2.49-.818 3.77-.553zM21.088 20.918v3.945a5.196 5.196 0 0 1-.42-.222c-.402-.21-1.156-.2-1.516.032-.762.447-1.692.67-2.621.67V21.65c.31-.002.593-.054.787-.179 1.076-.63 2.49-.818 3.77-.553z" fill="#4894FF"/>
        </g>
    </g>
</svg>
