<svg width="33" height="33" viewBox="0 0 33 33" xmlns="http://www.w3.org/2000/svg">
    <defs>
        <linearGradient x1="13.882%" y1="55.943%" x2="89.147%" y2="58.707%" id="ahat17kska">
            <stop stop-color="#0064E1" offset="0%"/>
            <stop stop-color="#0064E1" offset="40%"/>
            <stop stop-color="#0073EE" offset="80%"/>
            <stop stop-color="#0082FB" offset="100%"/>
        </linearGradient>
        <linearGradient x1="54.31%" y1="82.78%" x2="54.31%" y2="39.303%" id="4bcdnqd7jb">
            <stop stop-color="#0082FB" offset="0%"/>
            <stop stop-color="#0064E0" offset="100%"/>
        </linearGradient>
    </defs>
    <g fill="none" fill-rule="evenodd">
        <circle cx="16.5" cy="16.5" r="16.5" fill="#F5F5F6"/>
        <g fill-rule="nonzero">
            <path d="M9.053 18.328c0 .727.159 1.284.367 1.62.273.442.68.63 1.094.63.537 0 1.026-.133 1.97-1.44.755-1.045 1.646-2.514 2.245-3.436l1.015-1.56c.705-1.084 1.52-2.288 2.457-3.105.763-.667 1.588-1.037 2.416-1.037 1.393 0 2.719.807 3.733 2.322C25.461 13.98 26 16.068 26 18.224c0 1.28-.252 2.222-.682 2.967-.415.72-1.223 1.438-2.584 1.438v-2.052c1.165 0 1.456-1.07 1.456-2.296 0-1.747-.408-3.686-1.304-5.071-.636-.983-1.46-1.583-2.368-1.583-.98 0-1.77.741-2.658 2.06-.472.702-.956 1.557-1.5 2.522l-.599 1.061c-1.202 2.134-1.506 2.62-2.108 3.423-1.053 1.403-1.953 1.936-3.139 1.936-1.404 0-2.294-.61-2.843-1.526-.45-.749-.671-1.73-.671-2.848l2.053.073z" fill="#0081FB"/>
            <path d="M1.618 2.466C2.56 1.016 3.918 0 5.475 0c.901 0 1.798.267 2.734 1.032 1.024.836 2.116 2.214 3.478 4.484l.488.814c1.18 1.965 1.85 2.976 2.242 3.453.504.612.859.794 1.317.794 1.165 0 1.456-1.07 1.456-2.296L19 8.224c0 1.28-.252 2.222-.682 2.967-.415.72-1.223 1.438-2.584 1.438-.845 0-1.595-.185-2.424-.966-.636-.6-1.381-1.667-1.954-2.626L9.653 6.188c-.855-1.429-1.64-2.494-2.094-2.977-.488-.52-1.116-1.146-2.117-1.146-.811 0-1.5.569-2.076 1.44L1.618 2.466z" fill="url(#ahat17kska)" transform="translate(7 10)"/>
            <path d="M5.442 2.065c-.811 0-1.5.569-2.076 1.44-.815 1.23-1.313 3.063-1.313 4.823 0 .727.159 1.284.367 1.62L.67 11.104C.22 10.354 0 9.373 0 8.255c0-2.033.558-4.152 1.618-5.789C2.56 1.016 3.918 0 5.475 0l-.033 2.065z" fill="url(#4bcdnqd7jb)" transform="translate(7 10)"/>
        </g>
    </g>
</svg>
