<svg width="33" height="33" viewBox="0 0 33 33" xmlns="http://www.w3.org/2000/svg">
    <g fill="none" fill-rule="evenodd">
        <circle fill="#E8F5FB" cx="16.5" cy="16.5" r="16.5"/>
        <g fill="#3B82F6" fill-rule="nonzero">
            <path d="M7 17.8v-3.6a.9.9 0 0 1 .9-.9h3.6a.9.9 0 0 1 .9.9v3.6a.9.9 0 0 1-.9.9H7.9a.9.9 0 0 1-.9-.9zm.9 7.2h3.6a.9.9 0 0 0 .9-.9v-3.6a.9.9 0 0 0-.9-.9H7.9a.9.9 0 0 0-.9.9v3.6a.9.9 0 0 0 .9.9zm9.9-18h-3.6a.9.9 0 0 0-.9.9v3.6a.9.9 0 0 0 .9.9h3.6a.9.9 0 0 0 .9-.9V7.9a.9.9 0 0 0-.9-.9zm0 11.7a.9.9 0 0 0 .9-.9v-3.6a.9.9 0 0 0-.9-.9h-3.6a.9.9 0 0 0-.9.9v3.6a.9.9 0 0 0 .9.9h3.6zM24.1 7h-3.6a.9.9 0 0 0-.9.9v3.6a.9.9 0 0 0 .9.9h3.6a.9.9 0 0 0 .9-.9V7.9a.9.9 0 0 0-.9-.9z"/>
            <path d="M25 20.5v3.6a.9.9 0 0 1-.9.9h-3.6a.9.9 0 0 1-.9-.9v-3.6a.9.9 0 0 1 .9-.9h3.6a.9.9 0 0 1 .9.9z" opacity=".3"/>
        </g>
    </g>
</svg>
