<svg width="33" height="33" viewBox="0 0 33 33" xmlns="http://www.w3.org/2000/svg">
    <g fill="none" fill-rule="evenodd">
        <circle fill="#E7F0F0" cx="16.5" cy="16.5" r="16.5"/>
        <g fill-rule="nonzero">
            <path d="M11.062 15.344H4.674a.674.674 0 0 0 0 1.348h6.388a.674.674 0 0 0 0-1.348z" fill="#FAFDFF"/>
            <path d="M26.326 15.344H15.411a.674.674 0 0 0 0 1.348h10.915a.674.674 0 0 0 0-1.348z" fill="#FABE2C"/>
            <path d="M26.326 19.016H15.411a.674.674 0 0 0 0 1.348h10.915a.674.674 0 0 0 0-1.348z" fill="#F69"/>
            <path d="M26.326 22.688H15.411a.674.674 0 0 0-.674.674l9.13.674h2.46a.674.674 0 0 0 0-1.348z" fill="#E62E6B"/>
            <path d="M15.411 9.348h10.915a.674.674 0 0 0 0-1.348H15.411v1.348z" fill="#66C0EE"/>
            <path d="M26.326 11.672H15.411a.674.674 0 0 0 0 1.348h10.915a.674.674 0 0 0 0-1.348z" fill="#00CC76"/>
            <path d="M24.45 23.025 15.97 8.337a.674.674 0 0 0-1.167 0l-8.48 14.688a.674.674 0 0 0 .583 1.01h16.96a.674.674 0 0 0 .584-1.01z" fill="#7ED8F6"/>
            <path d="M15.97 8.337A.674.674 0 0 0 15.411 8v16.035h8.456a.674.674 0 0 0 .583-1.01l-8.48-14.69z" fill="#66C0EE"/>
        </g>
    </g>
</svg>
