<svg width="33" height="33" viewBox="0 0 33 33" xmlns="http://www.w3.org/2000/svg">
    <g fill="none" fill-rule="evenodd">
        <circle fill="#EBECED" cx="16.5" cy="16.5" r="16.5"/>
        <path d="M8.5 14C7.122 14 6 15.12 6 16.497a2.501 2.501 0 0 0 5 0A2.501 2.501 0 0 0 8.5 14zm8 0c-1.379 0-2.5 1.12-2.5 2.497a2.501 2.501 0 0 0 5 0A2.501 2.501 0 0 0 16.5 14zm8 0c-1.378 0-2.5 1.12-2.5 2.497a2.501 2.501 0 0 0 5 0A2.501 2.501 0 0 0 24.5 14z" fill="#878990" fill-rule="nonzero"/>
    </g>
</svg>
