<svg width="33" height="33" viewBox="0 0 33 33" xmlns="http://www.w3.org/2000/svg">
    <g fill="none" fill-rule="evenodd">
        <circle fill="#CFF9EB" cx="16.5" cy="16.5" r="16.5"/>
        <g fill-rule="nonzero">
            <path d="M23.047 26H9.953A2.957 2.957 0 0 1 7 23.047V9.953A2.957 2.957 0 0 1 9.953 7h13.094A2.957 2.957 0 0 1 26 9.953v13.094A2.957 2.957 0 0 1 23.047 26z" fill="#3FCB8E"/>
            <g fill="#00ABA8">
                <path d="M23.047 7H16.5v19h6.547A2.957 2.957 0 0 0 26 23.047V9.953A2.957 2.957 0 0 0 23.047 7zM13.252 7h1.13v6.297h-1.13z"/>
                <path d="M15.935 7h1.13v6.297h-1.13z"/>
            </g>
            <path fill="#00858F" d="M18.619 7h1.129v6.297h-1.129z"/>
            <path d="M11.134 10.119a.564.564 0 0 1-.565-.565V7h1.129v2.554a.564.564 0 0 1-.564.565z" fill="#00ABA8"/>
            <g fill="#00858F">
                <path d="M21.867 10.119a.564.564 0 0 1-.565-.565V7h1.129v2.554a.564.564 0 0 1-.564.565zM18.619 19.703h1.129V26h-1.129z"/>
            </g>
            <g fill="#00ABA8">
                <path d="M15.935 19.703h1.13V26h-1.13zM13.252 19.703h1.13V26h-1.13z"/>
            </g>
            <path d="M21.302 26v-2.554a.564.564 0 0 1 1.129 0V26h-1.129z" fill="#00858F"/>
            <g fill="#00ABA8">
                <path d="M10.57 26v-2.554a.564.564 0 0 1 1.128 0V26h-1.129zM9.65 14.792H7v-1.129h2.65a.564.564 0 0 1 0 1.129zM7 15.935h4.172v1.13H7zM9.65 19.337H7v-1.129h2.65a.564.564 0 0 1 0 1.129z"/>
            </g>
            <g fill="#00858F">
                <path d="M26 19.337h-2.65a.564.564 0 0 1 0-1.129H26v1.129zM21.263 15.935H26v1.13h-4.737zM26 14.792h-2.65a.564.564 0 0 1 0-1.129H26v1.129z"/>
            </g>
            <path d="M21.263 20.267h-9.526a.564.564 0 0 1-.565-.564v-6.406c0-.312.253-.564.565-.564h9.526c.312 0 .565.252.565.564v6.406a.564.564 0 0 1-.565.564z" fill="#00ABA8"/>
            <path d="M18.965 18.066h-4.93a.564.564 0 0 1-.564-.564v-2.004c0-.311.252-.564.564-.564h4.93c.312 0 .564.253.564.564v2.004a.564.564 0 0 1-.564.564z" fill="#D4F1FF"/>
            <g fill="#00858F">
                <path d="M16.5 19.703h1V26h-1zM16.5 7h1v6.297h-1z"/>
                <path d="M21.263 12.733H16.5v7.534h4.763a.564.564 0 0 0 .565-.564v-6.406a.564.564 0 0 0-.565-.564z"/>
            </g>
            <path d="M18.965 14.934H16.5v3.132h2.465a.564.564 0 0 0 .564-.564v-2.004a.564.564 0 0 0-.564-.564z" fill="#91DEFF"/>
        </g>
    </g>
</svg>
